# xmcd
# Track frame offsets:
# 150
# 14635
# 29887
# 48877
# 63007
# 74420
# 92245
# 106157
# 120907
# 133365
# 150517
# 163710
#
# Disc length: 2384 seconds
# Revision: 0
# Processed by: cddbd v1.5.1PL0 Copyright (c) Steve Scherf et al.
# Submitted via: VisiTrax 2.9.10.228 - For more info visit www.synapsa.com
#
DISCID=a0094e0c
DTITLE=Wendy Manley - Ten Below
DYEAR=1999
DGENRE=
TTITLE0=Paid in Full
TTITLE1=Midnight State of Mind
TTITLE2=Ten Below
TTITLE3=Color Outside the Lines With Me
TTITLE4=Cousin Blue
TTITLE5=Mr So and So
TTITLE6=Silence For My Soul
TTITLE7=Yesterday's Child
TTITLE8=Dandelion Days
TTITLE9=My Bel Air
TTITLE10=Reachin' Out from 1944
TTITLE11=Harbor of Your Arms
EXTD=Most songs by John P Nelson
EXTT0=
EXTT1=
EXTT2=
EXTT3=
EXTT4=
EXTT5=
EXTT6=
EXTT7=
EXTT8=
EXTT9=
EXTT10=
EXTT11=
PLAYORDER=
